0
SECTION
2
HEADER
9
$INSUNITS
70
4
0
ENDSEC
0
SECTION
2
TABLES
0
TABLE
2
LTYPE
0
LTYPE
72
65
70
64
2
CONTINUOUS
3
______
73
0
40
0
0
ENDTAB
0
TABLE
2
LAYER
0
ENDTAB
0
ENDSEC
0
SECTION
2
ENTITIES
0
LINE
8
0
10
-6
20
12
11
6
21
12
0
LINE
8
0
10
7
20
13
11
7
21
25
0
LINE
8
0
10
6
20
26
11
-6
21
26
0
LINE
8
0
10
-7
20
25
11
-7
21
13
0
LINE
8
0
10
-6
20
31
11
6
21
31
0
LINE
8
0
10
7
20
32
11
7
21
44
0
LINE
8
0
10
6
20
45
11
-6
21
45
0
LINE
8
0
10
-7
20
44
11
-7
21
32
0
LINE
8
0
10
-6
20
50
11
6
21
50
0
LINE
8
0
10
7
20
51
11
7
21
63
0
LINE
8
0
10
6
20
64
11
-6
21
64
0
LINE
8
0
10
-7
20
63
11
-7
21
51
0
LINE
8
0
10
13
20
21
11
25
21
21
0
LINE
8
0
10
26
20
22
11
26
21
34
0
LINE
8
0
10
25
20
35
11
13
21
35
0
LINE
8
0
10
12
20
34
11
12
21
22
0
LINE
8
0
10
13
20
40
11
25
21
40
0
LINE
8
0
10
26
20
41
11
26
21
53
0
LINE
8
0
10
25
20
54
11
13
21
54
0
LINE
8
0
10
12
20
53
11
12
21
41
0
LINE
8
0
10
13
20
59
11
25
21
59
0
LINE
8
0
10
26
20
60
11
26
21
72
0
LINE
8
0
10
25
20
73
11
13
21
73
0
LINE
8
0
10
12
20
72
11
12
21
60
0
LINE
8
0
10
32
20
2
11
44
21
2
0
LINE
8
0
10
45
20
3
11
45
21
15
0
LINE
8
0
10
44
20
16
11
32
21
16
0
LINE
8
0
10
31
20
15
11
31
21
3
0
LINE
8
0
10
32
20
21
11
44
21
21
0
LINE
8
0
10
45
20
22
11
45
21
34
0
LINE
8
0
10
44
20
35
11
32
21
35
0
LINE
8
0
10
31
20
34
11
31
21
22
0
LINE
8
0
10
32
20
40
11
44
21
40
0
LINE
8
0
10
45
20
41
11
45
21
53
0
LINE
8
0
10
44
20
54
11
32
21
54
0
LINE
8
0
10
31
20
53
11
31
21
41
0
LINE
8
0
10
32
20
59
11
44
21
59
0
LINE
8
0
10
45
20
60
11
45
21
72
0
LINE
8
0
10
44
20
73
11
32
21
73
0
LINE
8
0
10
31
20
72
11
31
21
60
0
LINE
8
0
10
51
20
2
11
63
21
2
0
LINE
8
0
10
64
20
3
11
64
21
15
0
LINE
8
0
10
63
20
16
11
51
21
16
0
LINE
8
0
10
50
20
15
11
50
21
3
0
LINE
8
0
10
51
20
21
11
63
21
21
0
LINE
8
0
10
64
20
22
11
64
21
34
0
LINE
8
0
10
63
20
35
11
51
21
35
0
LINE
8
0
10
50
20
34
11
50
21
22
0
LINE
8
0
10
51
20
40
11
63
21
40
0
LINE
8
0
10
64
20
41
11
64
21
53
0
LINE
8
0
10
63
20
54
11
51
21
54
0
LINE
8
0
10
50
20
53
11
50
21
41
0
LINE
8
0
10
51
20
59
11
63
21
59
0
LINE
8
0
10
64
20
60
11
64
21
72
0
LINE
8
0
10
63
20
73
11
51
21
73
0
LINE
8
0
10
50
20
72
11
50
21
60
0
LINE
8
0
10
70
20
-1.6
11
82
21
-1.6
0
LINE
8
0
10
83
20
-0.6
11
83
21
11.4
0
LINE
8
0
10
82
20
12.4
11
70
21
12.4
0
LINE
8
0
10
69
20
11.4
11
69
21
-0.6
0
LINE
8
0
10
70
20
17.4
11
82
21
17.4
0
LINE
8
0
10
83
20
18.4
11
83
21
30.4
0
LINE
8
0
10
82
20
31.4
11
70
21
31.4
0
LINE
8
0
10
69
20
30.4
11
69
21
18.4
0
LINE
8
0
10
70
20
36.4
11
82
21
36.4
0
LINE
8
0
10
83
20
37.4
11
83
21
49.4
0
LINE
8
0
10
82
20
50.4
11
70
21
50.4
0
LINE
8
0
10
69
20
49.4
11
69
21
37.4
0
LINE
8
0
10
70
20
55.4
11
82
21
55.4
0
LINE
8
0
10
83
20
56.4
11
83
21
68.4
0
LINE
8
0
10
82
20
69.4
11
70
21
69.4
0
LINE
8
0
10
69
20
68.4
11
69
21
56.4
0
ARC
8
0
10
82
20
56.4
40
1
50
270
51
0
0
ARC
8
0
10
82
20
68.4
40
1
50
0
51
90
0
ARC
8
0
10
70
20
68.4
40
1
50
90
51
180
0
ARC
8
0
10
70
20
56.4
40
1
50
180
51
270
0
ARC
8
0
10
6
20
13
40
1
50
270
51
0
0
ARC
8
0
10
6
20
25
40
1
50
0
51
90
0
ARC
8
0
10
-6
20
25
40
1
50
90
51
180
0
ARC
8
0
10
-6
20
13
40
1
50
180
51
270
0
ARC
8
0
10
6
20
32
40
1
50
270
51
0
0
ARC
8
0
10
6
20
44
40
1
50
0
51
90
0
ARC
8
0
10
-6
20
44
40
1
50
90
51
180
0
ARC
8
0
10
-6
20
32
40
1
50
180
51
270
0
ARC
8
0
10
6
20
51
40
1
50
270
51
0
0
ARC
8
0
10
6
20
63
40
1
50
0
51
90
0
ARC
8
0
10
-6
20
63
40
1
50
90
51
180
0
ARC
8
0
10
-6
20
51
40
1
50
180
51
270
0
ARC
8
0
10
25
20
22
40
1
50
270
51
0
0
ARC
8
0
10
25
20
34
40
1
50
0
51
90
0
ARC
8
0
10
13
20
34
40
1
50
90
51
180
0
ARC
8
0
10
13
20
22
40
1
50
180
51
270
0
ARC
8
0
10
25
20
41
40
1
50
270
51
0
0
ARC
8
0
10
25
20
53
40
1
50
0
51
90
0
ARC
8
0
10
13
20
53
40
1
50
90
51
180
0
ARC
8
0
10
13
20
41
40
1
50
180
51
270
0
ARC
8
0
10
25
20
60
40
1
50
270
51
0
0
ARC
8
0
10
25
20
72
40
1
50
0
51
90
0
ARC
8
0
10
13
20
72
40
1
50
90
51
180
0
ARC
8
0
10
13
20
60
40
1
50
180
51
270
0
ARC
8
0
10
44
20
3
40
1
50
270
51
0
0
ARC
8
0
10
44
20
15
40
1
50
0
51
90
0
ARC
8
0
10
32
20
15
40
1
50
90
51
180
0
ARC
8
0
10
32
20
3
40
1
50
180
51
270
0
ARC
8
0
10
44
20
22
40
1
50
270
51
0
0
ARC
8
0
10
44
20
34
40
1
50
0
51
90
0
ARC
8
0
10
32
20
34
40
1
50
90
51
180
0
ARC
8
0
10
32
20
22
40
1
50
180
51
270
0
ARC
8
0
10
44
20
41
40
1
50
270
51
0
0
ARC
8
0
10
44
20
53
40
1
50
0
51
90
0
ARC
8
0
10
32
20
53
40
1
50
90
51
180
0
ARC
8
0
10
32
20
41
40
1
50
180
51
270
0
ARC
8
0
10
44
20
60
40
1
50
270
51
0
0
ARC
8
0
10
44
20
72
40
1
50
0
51
90
0
ARC
8
0
10
32
20
72
40
1
50
90
51
180
0
ARC
8
0
10
32
20
60
40
1
50
180
51
270
0
ARC
8
0
10
63
20
3
40
1
50
270
51
0
0
ARC
8
0
10
63
20
15
40
1
50
0
51
90
0
ARC
8
0
10
51
20
15
40
1
50
90
51
180
0
ARC
8
0
10
51
20
3
40
1
50
180
51
270
0
ARC
8
0
10
63
20
22
40
1
50
270
51
0
0
ARC
8
0
10
63
20
34
40
1
50
0
51
90
0
ARC
8
0
10
51
20
34
40
1
50
90
51
180
0
ARC
8
0
10
51
20
22
40
1
50
180
51
270
0
ARC
8
0
10
63
20
41
40
1
50
270
51
0
0
ARC
8
0
10
63
20
53
40
1
50
0
51
90
0
ARC
8
0
10
51
20
53
40
1
50
90
51
180
0
ARC
8
0
10
51
20
41
40
1
50
180
51
270
0
ARC
8
0
10
63
20
60
40
1
50
270
51
0
0
ARC
8
0
10
63
20
72
40
1
50
0
51
90
0
ARC
8
0
10
51
20
72
40
1
50
90
51
180
0
ARC
8
0
10
51
20
60
40
1
50
180
51
270
0
ARC
8
0
10
82
20
-0.6
40
1
50
270
51
0
0
ARC
8
0
10
82
20
11.4
40
1
50
0
51
90
0
ARC
8
0
10
70
20
11.4
40
1
50
90
51
180
0
ARC
8
0
10
70
20
-0.6
40
1
50
180
51
270
0
ARC
8
0
10
82
20
18.4
40
1
50
270
51
0
0
ARC
8
0
10
82
20
30.4
40
1
50
0
51
90
0
ARC
8
0
10
70
20
30.4
40
1
50
90
51
180
0
ARC
8
0
10
70
20
18.4
40
1
50
180
51
270
0
ARC
8
0
10
82
20
37.4
40
1
50
270
51
0
0
ARC
8
0
10
82
20
49.4
40
1
50
0
51
90
0
ARC
8
0
10
70
20
49.4
40
1
50
90
51
180
0
ARC
8
0
10
70
20
37.4
40
1
50
180
51
270
0
ENDSEC
0
EOF