0
SECTION
2
HEADER
9
$INSUNITS
70
4
0
ENDSEC
0
SECTION
2
TABLES
0
TABLE
2
LTYPE
0
LTYPE
72
65
70
64
2
CONTINUOUS
3
______
73
0
40
0
0
ENDTAB
0
TABLE
2
LAYER
0
ENDTAB
0
ENDSEC
0
SECTION
2
ENTITIES
0
LINE
8
0
10
-7.5
20
10.5
11
7.5
21
10.5
0
LINE
8
0
10
8.5
20
11.5
11
8.5
21
26.5
0
LINE
8
0
10
7.5
20
27.5
11
-7.5
21
27.5
0
LINE
8
0
10
-8.5
20
26.5
11
-8.5
21
11.5
0
LINE
8
0
10
-7.5
20
29.5
11
7.5
21
29.5
0
LINE
8
0
10
8.5
20
30.5
11
8.5
21
45.5
0
LINE
8
0
10
7.5
20
46.5
11
-7.5
21
46.5
0
LINE
8
0
10
-8.5
20
45.5
11
-8.5
21
30.5
0
LINE
8
0
10
-7.5
20
48.5
11
7.5
21
48.5
0
LINE
8
0
10
8.5
20
49.5
11
8.5
21
64.5
0
LINE
8
0
10
7.5
20
65.5
11
-7.5
21
65.5
0
LINE
8
0
10
-8.5
20
64.5
11
-8.5
21
49.5
0
LINE
8
0
10
11.5
20
19.5
11
26.5
21
19.5
0
LINE
8
0
10
27.5
20
20.5
11
27.5
21
35.5
0
LINE
8
0
10
26.5
20
36.5
11
11.5
21
36.5
0
LINE
8
0
10
10.5
20
35.5
11
10.5
21
20.5
0
LINE
8
0
10
11.5
20
38.5
11
26.5
21
38.5
0
LINE
8
0
10
27.5
20
39.5
11
27.5
21
54.5
0
LINE
8
0
10
26.5
20
55.5
11
11.5
21
55.5
0
LINE
8
0
10
10.5
20
54.5
11
10.5
21
39.5
0
LINE
8
0
10
11.5
20
57.5
11
26.5
21
57.5
0
LINE
8
0
10
27.5
20
58.5
11
27.5
21
73.5
0
LINE
8
0
10
26.5
20
74.5
11
11.5
21
74.5
0
LINE
8
0
10
10.5
20
73.5
11
10.5
21
58.5
0
LINE
8
0
10
30.5
20
0.5
11
45.5
21
0.5
0
LINE
8
0
10
46.5
20
1.5
11
46.5
21
16.5
0
LINE
8
0
10
45.5
20
17.5
11
30.5
21
17.5
0
LINE
8
0
10
29.5
20
16.5
11
29.5
21
1.5
0
LINE
8
0
10
30.5
20
19.5
11
45.5
21
19.5
0
LINE
8
0
10
46.5
20
20.5
11
46.5
21
35.5
0
LINE
8
0
10
45.5
20
36.5
11
30.5
21
36.5
0
LINE
8
0
10
29.5
20
35.5
11
29.5
21
20.5
0
LINE
8
0
10
30.5
20
38.5
11
45.5
21
38.5
0
LINE
8
0
10
46.5
20
39.5
11
46.5
21
54.5
0
LINE
8
0
10
45.5
20
55.5
11
30.5
21
55.5
0
LINE
8
0
10
29.5
20
54.5
11
29.5
21
39.5
0
LINE
8
0
10
30.5
20
57.5
11
45.5
21
57.5
0
LINE
8
0
10
46.5
20
58.5
11
46.5
21
73.5
0
LINE
8
0
10
45.5
20
74.5
11
30.5
21
74.5
0
LINE
8
0
10
29.5
20
73.5
11
29.5
21
58.5
0
LINE
8
0
10
49.5
20
0.5
11
64.5
21
0.5
0
LINE
8
0
10
65.5
20
1.5
11
65.5
21
16.5
0
LINE
8
0
10
64.5
20
17.5
11
49.5
21
17.5
0
LINE
8
0
10
48.5
20
16.5
11
48.5
21
1.5
0
LINE
8
0
10
49.5
20
19.5
11
64.5
21
19.5
0
LINE
8
0
10
65.5
20
20.5
11
65.5
21
35.5
0
LINE
8
0
10
64.5
20
36.5
11
49.5
21
36.5
0
LINE
8
0
10
48.5
20
35.5
11
48.5
21
20.5
0
LINE
8
0
10
49.5
20
38.5
11
64.5
21
38.5
0
LINE
8
0
10
65.5
20
39.5
11
65.5
21
54.5
0
LINE
8
0
10
64.5
20
55.5
11
49.5
21
55.5
0
LINE
8
0
10
48.5
20
54.5
11
48.5
21
39.5
0
LINE
8
0
10
49.5
20
57.5
11
64.5
21
57.5
0
LINE
8
0
10
65.5
20
58.5
11
65.5
21
73.5
0
LINE
8
0
10
64.5
20
74.5
11
49.5
21
74.5
0
LINE
8
0
10
48.5
20
73.5
11
48.5
21
58.5
0
LINE
8
0
10
68.5
20
-3.1
11
83.5
21
-3.1
0
LINE
8
0
10
84.5
20
-2.1
11
84.5
21
12.9
0
LINE
8
0
10
83.5
20
13.9
11
68.5
21
13.9
0
LINE
8
0
10
67.5
20
12.9
11
67.5
21
-2.1
0
LINE
8
0
10
68.5
20
15.9
11
83.5
21
15.9
0
LINE
8
0
10
84.5
20
16.9
11
84.5
21
31.9
0
LINE
8
0
10
83.5
20
32.9
11
68.5
21
32.9
0
LINE
8
0
10
67.5
20
31.9
11
67.5
21
16.9
0
LINE
8
0
10
68.5
20
34.9
11
83.5
21
34.9
0
LINE
8
0
10
84.5
20
35.9
11
84.5
21
50.9
0
LINE
8
0
10
83.5
20
51.9
11
68.5
21
51.9
0
LINE
8
0
10
67.5
20
50.9
11
67.5
21
35.9
0
LINE
8
0
10
68.5
20
53.9
11
83.5
21
53.9
0
LINE
8
0
10
84.5
20
54.9
11
84.5
21
69.9
0
LINE
8
0
10
83.5
20
70.9
11
68.5
21
70.9
0
LINE
8
0
10
67.5
20
69.9
11
67.5
21
54.9
0
ARC
8
0
10
83.5
20
54.9
40
1
50
270
51
0
0
ARC
8
0
10
83.5
20
69.9
40
1
50
0
51
90
0
ARC
8
0
10
68.5
20
69.9
40
1
50
90
51
180
0
ARC
8
0
10
68.5
20
54.9
40
1
50
180
51
270
0
ARC
8
0
10
7.5
20
11.5
40
1
50
270
51
0
0
ARC
8
0
10
7.5
20
26.5
40
1
50
0
51
90
0
ARC
8
0
10
-7.5
20
26.5
40
1
50
90
51
180
0
ARC
8
0
10
-7.5
20
11.5
40
1
50
180
51
270
0
ARC
8
0
10
7.5
20
30.5
40
1
50
270
51
0
0
ARC
8
0
10
7.5
20
45.5
40
1
50
0
51
90
0
ARC
8
0
10
-7.5
20
45.5
40
1
50
90
51
180
0
ARC
8
0
10
-7.5
20
30.5
40
1
50
180
51
270
0
ARC
8
0
10
7.5
20
49.5
40
1
50
270
51
0
0
ARC
8
0
10
7.5
20
64.5
40
1
50
0
51
90
0
ARC
8
0
10
-7.5
20
64.5
40
1
50
90
51
180
0
ARC
8
0
10
-7.5
20
49.5
40
1
50
180
51
270
0
ARC
8
0
10
26.5
20
20.5
40
1
50
270
51
0
0
ARC
8
0
10
26.5
20
35.5
40
1
50
0
51
90
0
ARC
8
0
10
11.5
20
35.5
40
1
50
90
51
180
0
ARC
8
0
10
11.5
20
20.5
40
1
50
180
51
270
0
ARC
8
0
10
26.5
20
39.5
40
1
50
270
51
0
0
ARC
8
0
10
26.5
20
54.5
40
1
50
0
51
90
0
ARC
8
0
10
11.5
20
54.5
40
1
50
90
51
180
0
ARC
8
0
10
11.5
20
39.5
40
1
50
180
51
270
0
ARC
8
0
10
26.5
20
58.5
40
1
50
270
51
0
0
ARC
8
0
10
26.5
20
73.5
40
1
50
0
51
90
0
ARC
8
0
10
11.5
20
73.5
40
1
50
90
51
180
0
ARC
8
0
10
11.5
20
58.5
40
1
50
180
51
270
0
ARC
8
0
10
45.5
20
1.5
40
1
50
270
51
0
0
ARC
8
0
10
45.5
20
16.5
40
1
50
0
51
90
0
ARC
8
0
10
30.5
20
16.5
40
1
50
90
51
180
0
ARC
8
0
10
30.5
20
1.5
40
1
50
180
51
270
0
ARC
8
0
10
45.5
20
20.5
40
1
50
270
51
0
0
ARC
8
0
10
45.5
20
35.5
40
1
50
0
51
90
0
ARC
8
0
10
30.5
20
35.5
40
1
50
90
51
180
0
ARC
8
0
10
30.5
20
20.5
40
1
50
180
51
270
0
ARC
8
0
10
45.5
20
39.5
40
1
50
270
51
0
0
ARC
8
0
10
45.5
20
54.5
40
1
50
0
51
90
0
ARC
8
0
10
30.5
20
54.5
40
1
50
90
51
180
0
ARC
8
0
10
30.5
20
39.5
40
1
50
180
51
270
0
ARC
8
0
10
45.5
20
58.5
40
1
50
270
51
0
0
ARC
8
0
10
45.5
20
73.5
40
1
50
0
51
90
0
ARC
8
0
10
30.5
20
73.5
40
1
50
90
51
180
0
ARC
8
0
10
30.5
20
58.5
40
1
50
180
51
270
0
ARC
8
0
10
64.5
20
1.5
40
1
50
270
51
0
0
ARC
8
0
10
64.5
20
16.5
40
1
50
0
51
90
0
ARC
8
0
10
49.5
20
16.5
40
1
50
90
51
180
0
ARC
8
0
10
49.5
20
1.5
40
1
50
180
51
270
0
ARC
8
0
10
64.5
20
20.5
40
1
50
270
51
0
0
ARC
8
0
10
64.5
20
35.5
40
1
50
0
51
90
0
ARC
8
0
10
49.5
20
35.5
40
1
50
90
51
180
0
ARC
8
0
10
49.5
20
20.5
40
1
50
180
51
270
0
ARC
8
0
10
64.5
20
39.5
40
1
50
270
51
0
0
ARC
8
0
10
64.5
20
54.5
40
1
50
0
51
90
0
ARC
8
0
10
49.5
20
54.5
40
1
50
90
51
180
0
ARC
8
0
10
49.5
20
39.5
40
1
50
180
51
270
0
ARC
8
0
10
64.5
20
58.5
40
1
50
270
51
0
0
ARC
8
0
10
64.5
20
73.5
40
1
50
0
51
90
0
ARC
8
0
10
49.5
20
73.5
40
1
50
90
51
180
0
ARC
8
0
10
49.5
20
58.5
40
1
50
180
51
270
0
ARC
8
0
10
83.5
20
-2.1
40
1
50
270
51
0
0
ARC
8
0
10
83.5
20
12.9
40
1
50
0
51
90
0
ARC
8
0
10
68.5
20
12.9
40
1
50
90
51
180
0
ARC
8
0
10
68.5
20
-2.1
40
1
50
180
51
270
0
ARC
8
0
10
83.5
20
16.9
40
1
50
270
51
0
0
ARC
8
0
10
83.5
20
31.9
40
1
50
0
51
90
0
ARC
8
0
10
68.5
20
31.9
40
1
50
90
51
180
0
ARC
8
0
10
68.5
20
16.9
40
1
50
180
51
270
0
ARC
8
0
10
83.5
20
35.9
40
1
50
270
51
0
0
ARC
8
0
10
83.5
20
50.9
40
1
50
0
51
90
0
ARC
8
0
10
68.5
20
50.9
40
1
50
90
51
180
0
ARC
8
0
10
68.5
20
35.9
40
1
50
180
51
270
0
ENDSEC
0
EOF