0
SECTION
2
HEADER
9
$INSUNITS
70
4
0
ENDSEC
0
SECTION
2
TABLES
0
TABLE
2
LTYPE
0
LTYPE
72
65
70
64
2
CONTINUOUS
3
______
73
0
40
0
0
ENDTAB
0
TABLE
2
LAYER
0
ENDTAB
0
ENDSEC
0
SECTION
2
ENTITIES
0
LINE
8
0
10
-9.5
20
8.5
11
10.2276918
21
8.5
0
LINE
8
0
10
-10.5
20
9.5
11
-10.5
21
66.5
0
LINE
8
0
10
-9.5
20
67.5
11
7.5
21
67.5
0
LINE
8
0
10
9.5
20
76.5
11
66.5
21
76.5
0
LINE
8
0
10
8.5
20
68.5
11
8.5
21
75.5
0
LINE
8
0
10
27.7723082
20
-1.5
11
64.5
21
-1.5
0
LINE
8
0
10
67.5
20
75.5
11
67.5
21
73.9
0
LINE
8
0
10
86.5
20
-4.1
11
86.5
21
31.4
0
LINE
8
0
10
86.5
20
59.4
11
86.5
21
71.9
0
LINE
8
0
10
66.5
20
-5.1
11
85.5
21
-5.1
0
LINE
8
0
10
65.5
20
-4.1
11
65.5
21
-2.5
0
LINE
8
0
10
68.5
20
72.9
11
85.5
21
72.9
0
LINE
8
0
10
27.2652881
20
-1.3619342
11
10.7347119
21
8.3619342
0
LINE
8
0
10
87.5
20
58.4
11
88.5
21
58.4
0
LINE
8
0
10
89.5
20
57.4
11
89.5
21
33.4
0
LINE
8
0
10
88.5
20
32.4
11
87.5
21
32.4
0
ARC
8
0
10
10.2276918
20
7.5
40
1
50
59.534456
51
90
0
ARC
8
0
10
27.7723082
20
-0.5
40
1
50
239.534456
51
270
0
ARC
8
0
10
64.5
20
-2.5
40
1
50
0
51
90
0
ARC
8
0
10
66.5
20
-4.1
40
1
50
180
51
270
0
ARC
8
0
10
85.5
20
-4.1
40
1
50
270
51
0
0
ARC
8
0
10
87.5
20
31.4
40
1
50
90
51
180
0
ARC
8
0
10
88.5
20
33.4
40
1
50
270
51
0
0
ARC
8
0
10
88.5
20
57.4
40
1
50
0
51
90
0
ARC
8
0
10
87.5
20
59.4
40
1
50
180
51
270
0
ARC
8
0
10
85.5
20
71.9
40
1
50
0
51
90
0
ARC
8
0
10
68.5
20
73.9
40
1
50
180
51
270
0
ARC
8
0
10
66.5
20
75.5
40
1
50
0
51
90
0
ARC
8
0
10
9.5
20
75.5
40
1
50
90
51
180
0
ARC
8
0
10
7.5
20
68.5
40
1
50
270
51
0
0
ARC
8
0
10
-9.5
20
66.5
40
1
50
90
51
180
0
ARC
8
0
10
-9.5
20
9.5
40
1
50
180
51
270
0
ENDSEC
0
EOF