0
SECTION
2
HEADER
9
$INSUNITS
70
4
0
ENDSEC
0
SECTION
2
TABLES
0
TABLE
2
LTYPE
0
LTYPE
72
65
70
64
2
CONTINUOUS
3
______
73
0
40
0
0
ENDTAB
0
TABLE
2
LAYER
0
ENDTAB
0
ENDSEC
0
SECTION
2
ENTITIES
0
LINE
8
0
10
-10.5
20
8.5
11
10.5
21
8.5
0
LINE
8
0
10
-10.5
20
8.5
11
-10.5
21
67.5
0
LINE
8
0
10
-10.5
20
67.5
11
8.5
21
67.5
0
LINE
8
0
10
8.5
20
76.5
11
67.5
21
76.5
0
LINE
8
0
10
8.5
20
67.5
11
8.5
21
76.5
0
LINE
8
0
10
27.5
20
-1.5
11
65.5
21
-1.5
0
LINE
8
0
10
67.5
20
76.5
11
67.5
21
72.9
0
LINE
8
0
10
86.5
20
58.4
11
86.5
21
72.9
0
LINE
8
0
10
65.5
20
-5.1
11
107.5
21
-5.1
0
LINE
8
0
10
65.5
20
-5.1
11
65.5
21
-1.5
0
LINE
8
0
10
67.5
20
72.9
11
86.5
21
72.9
0
LINE
8
0
10
27.5
20
-1.5
11
10.5
21
8.5
0
LINE
8
0
10
86.5
20
58.4
11
107.5
21
58.4
0
LINE
8
0
10
107.5
20
58.4
11
107.5
21
-5.1
0
LINE
8
0
10
-7
20
27.5
11
7
21
27.5
0
LINE
8
0
10
7
20
27.5
11
7
21
29.5
0
LINE
8
0
10
7
20
29.5
11
-7
21
29.5
0
LINE
8
0
10
-7
20
29.5
11
-7
21
27.5
0
LINE
8
0
10
-7
20
46.5
11
7
21
46.5
0
LINE
8
0
10
7
20
46.5
11
7
21
48.5
0
LINE
8
0
10
7
20
48.5
11
-7
21
48.5
0
LINE
8
0
10
-7
20
48.5
11
-7
21
46.5
0
LINE
8
0
10
-7
20
65.5
11
7
21
65.5
0
LINE
8
0
10
7
20
65.5
11
7
21
67.5
0
LINE
8
0
10
-7
20
67.5
11
-7
21
65.5
0
LINE
8
0
10
12
20
36.5
11
26
21
36.5
0
LINE
8
0
10
26
20
36.5
11
26
21
38.5
0
LINE
8
0
10
26
20
38.5
11
12
21
38.5
0
LINE
8
0
10
12
20
38.5
11
12
21
36.5
0
LINE
8
0
10
12
20
55.5
11
26
21
55.5
0
LINE
8
0
10
26
20
55.5
11
26
21
57.5
0
LINE
8
0
10
26
20
57.5
11
12
21
57.5
0
LINE
8
0
10
12
20
57.5
11
12
21
55.5
0
LINE
8
0
10
12
20
74.5
11
26
21
74.5
0
LINE
8
0
10
26
20
74.5
11
26
21
76.5
0
LINE
8
0
10
12
20
76.5
11
12
21
74.5
0
LINE
8
0
10
31
20
17.5
11
45
21
17.5
0
LINE
8
0
10
45
20
17.5
11
45
21
19.5
0
LINE
8
0
10
45
20
19.5
11
31
21
19.5
0
LINE
8
0
10
31
20
19.5
11
31
21
17.5
0
LINE
8
0
10
31
20
36.5
11
45
21
36.5
0
LINE
8
0
10
45
20
36.5
11
45
21
38.5
0
LINE
8
0
10
45
20
38.5
11
31
21
38.5
0
LINE
8
0
10
31
20
38.5
11
31
21
36.5
0
LINE
8
0
10
31
20
55.5
11
45
21
55.5
0
LINE
8
0
10
45
20
55.5
11
45
21
57.5
0
LINE
8
0
10
45
20
57.5
11
31
21
57.5
0
LINE
8
0
10
31
20
57.5
11
31
21
55.5
0
LINE
8
0
10
31
20
74.5
11
45
21
74.5
0
LINE
8
0
10
45
20
74.5
11
45
21
76.5
0
LINE
8
0
10
31
20
76.5
11
31
21
74.5
0
LINE
8
0
10
50
20
17.5
11
64
21
17.5
0
LINE
8
0
10
64
20
17.5
11
64
21
19.5
0
LINE
8
0
10
64
20
19.5
11
50
21
19.5
0
LINE
8
0
10
50
20
19.5
11
50
21
17.5
0
LINE
8
0
10
50
20
36.5
11
64
21
36.5
0
LINE
8
0
10
64
20
36.5
11
64
21
38.5
0
LINE
8
0
10
64
20
38.5
11
50
21
38.5
0
LINE
8
0
10
50
20
38.5
11
50
21
36.5
0
LINE
8
0
10
50
20
55.5
11
64
21
55.5
0
LINE
8
0
10
64
20
55.5
11
64
21
57.5
0
LINE
8
0
10
64
20
57.5
11
50
21
57.5
0
LINE
8
0
10
50
20
57.5
11
50
21
55.5
0
LINE
8
0
10
50
20
74.5
11
64
21
74.5
0
LINE
8
0
10
64
20
74.5
11
64
21
76.5
0
LINE
8
0
10
50
20
76.5
11
50
21
74.5
0
LINE
8
0
10
69
20
13.9
11
83
21
13.9
0
LINE
8
0
10
83
20
13.9
11
83
21
15.9
0
LINE
8
0
10
83
20
15.9
11
69
21
15.9
0
LINE
8
0
10
69
20
15.9
11
69
21
13.9
0
LINE
8
0
10
69
20
32.9
11
83
21
32.9
0
LINE
8
0
10
83
20
32.9
11
83
21
34.9
0
LINE
8
0
10
83
20
34.9
11
69
21
34.9
0
LINE
8
0
10
69
20
34.9
11
69
21
32.9
0
LINE
8
0
10
69
20
51.9
11
83
21
51.9
0
LINE
8
0
10
83
20
51.9
11
83
21
53.9
0
LINE
8
0
10
83
20
53.9
11
69
21
53.9
0
LINE
8
0
10
69
20
53.9
11
69
21
51.9
0
LINE
8
0
10
69
20
70.9
11
83
21
70.9
0
LINE
8
0
10
83
20
70.9
11
83
21
72.9
0
LINE
8
0
10
69
20
72.9
11
69
21
70.9
0
LINE
8
0
10
7
20
8.5
11
7
21
10.5
0
LINE
8
0
10
7
20
10.5
11
-7
21
10.5
0
LINE
8
0
10
-7
20
10.5
11
-7
21
8.5
0
LINE
8
0
10
12
20
17.5
11
26
21
17.5
0
LINE
8
0
10
26
20
17.5
11
26
21
19.5
0
LINE
8
0
10
26
20
19.5
11
12
21
19.5
0
LINE
8
0
10
12
20
19.5
11
12
21
17.5
0
LINE
8
0
10
45
20
-1.5
11
45
21
0.5
0
LINE
8
0
10
45
20
0.5
11
31
21
0.5
0
LINE
8
0
10
31
20
0.5
11
31
21
-1.5
0
LINE
8
0
10
64
20
-1.5
11
64
21
0.5
0
LINE
8
0
10
64
20
0.5
11
50
21
0.5
0
LINE
8
0
10
50
20
0.5
11
50
21
-1.5
0
LINE
8
0
10
83
20
-5.1
11
83
21
-3.1
0
LINE
8
0
10
83
20
-3.1
11
69
21
-3.1
0
LINE
8
0
10
69
20
-3.1
11
69
21
-5.1
0
ENDSEC
0
EOF