%TF.GenerationSoftware,KiCad,Pcbnew,7.0.7*%
%TF.CreationDate,2023-11-30T20:13:54-05:00*%
%TF.ProjectId,pcb,7063622e-6b69-4636-9164-5f7063625858,v1.0.0*%
%TF.SameCoordinates,Original*%
%TF.FileFunction,Profile,NP*%
%FSLAX46Y46*%
G04 Gerber Fmt 4.6, Leading zero omitted, Abs format (unit mm)*
G04 Created by KiCad (PCBNEW 7.0.7) date 2023-11-30 20:13:54*
%MOMM*%
%LPD*%
G01*
G04 APERTURE LIST*
%TA.AperFunction,Profile*%
%ADD10C,0.150000*%
%TD*%
G04 APERTURE END LIST*
D10*
X27265286Y-1361938D02*
G75*
G03*
X27772308Y-1500000I507014J861938D01*
G01*
X67500000Y75500000D02*
X67500000Y73900000D01*
X66500000Y-5100000D02*
X85500000Y-5100000D01*
X86500000Y59400000D02*
G75*
G03*
X87500000Y58400000I1000000J0D01*
G01*
X87500000Y58400000D02*
X88000000Y58400000D01*
X68500000Y72900000D02*
X85500000Y72900000D01*
X86500000Y71900000D02*
G75*
G03*
X85500000Y72900000I-1000000J0D01*
G01*
X-10500000Y9500000D02*
X-10500000Y66500000D01*
X67500000Y73900000D02*
G75*
G03*
X68500000Y72900000I1000000J0D01*
G01*
X65500000Y-4100000D02*
X65500000Y-2500000D01*
X85500000Y-5100000D02*
G75*
G03*
X86500000Y-4100000I0J1000000D01*
G01*
X89000000Y57400000D02*
X89000000Y33400000D01*
X10734714Y8361938D02*
G75*
G03*
X10227692Y8500000I-507014J-861938D01*
G01*
X67500000Y75500000D02*
G75*
G03*
X66500000Y76500000I-1000000J0D01*
G01*
X88000000Y32400000D02*
X87500000Y32400000D01*
X86500000Y59400000D02*
X86500000Y71900000D01*
X89000000Y57400000D02*
G75*
G03*
X88000000Y58400000I-1000000J0D01*
G01*
X-10500000Y9500000D02*
G75*
G03*
X-9500000Y8500000I999999J-1D01*
G01*
X27265288Y-1361934D02*
X10734712Y8361934D01*
X-9500000Y67500000D02*
X7500000Y67500000D01*
X27772308Y-1500000D02*
X64500000Y-1500000D01*
X87500000Y32400000D02*
G75*
G03*
X86500000Y31400000I0J-1000000D01*
G01*
X-9500000Y8500000D02*
X10227692Y8500000D01*
X86500000Y-4100000D02*
X86500000Y31400000D01*
X7500000Y67500000D02*
G75*
G03*
X8500000Y68500000I0J1000000D01*
G01*
X88000000Y32400000D02*
G75*
G03*
X89000000Y33400000I0J1000000D01*
G01*
X9500000Y76500000D02*
X66500000Y76500000D01*
X65500000Y-2500000D02*
G75*
G03*
X64500000Y-1500000I-1000000J0D01*
G01*
X-9500000Y67500000D02*
G75*
G03*
X-10500000Y66500000I-1J-999999D01*
G01*
X9500000Y76500000D02*
G75*
G03*
X8500000Y75500000I0J-1000000D01*
G01*
X8500000Y68500000D02*
X8500000Y75500000D01*
X65500000Y-4100000D02*
G75*
G03*
X66500000Y-5100000I1000000J0D01*
G01*
M02*
