%TF.GenerationSoftware,KiCad,Pcbnew,7.0.7*%
%TF.CreationDate,2023-11-30T20:13:54-05:00*%
%TF.ProjectId,pcb,7063622e-6b69-4636-9164-5f7063625858,v1.0.0*%
%TF.SameCoordinates,Original*%
%TF.FileFunction,Soldermask,Top*%
%TF.FilePolarity,Negative*%
%FSLAX46Y46*%
G04 Gerber Fmt 4.6, Leading zero omitted, Abs format (unit mm)*
G04 Created by KiCad (PCBNEW 7.0.7) date 2023-11-30 20:13:54*
%MOMM*%
%LPD*%
G01*
G04 APERTURE LIST*
G04 Aperture macros list*
%AMRoundRect*
0 Rectangle with rounded corners*
0 $1 Rounding radius*
0 $2 $3 $4 $5 $6 $7 $8 $9 X,Y pos of 4 corners*
0 Add a 4 corners polygon primitive as box body*
4,1,4,$2,$3,$4,$5,$6,$7,$8,$9,$2,$3,0*
0 Add four circle primitives for the rounded corners*
1,1,$1+$1,$2,$3*
1,1,$1+$1,$4,$5*
1,1,$1+$1,$6,$7*
1,1,$1+$1,$8,$9*
0 Add four rect primitives between the rounded corners*
20,1,$1+$1,$2,$3,$4,$5,0*
20,1,$1+$1,$4,$5,$6,$7,0*
20,1,$1+$1,$6,$7,$8,$9,0*
20,1,$1+$1,$8,$9,$2,$3,0*%
G04 Aperture macros list end*
%ADD10C,1.300000*%
%ADD11C,1.801800*%
%ADD12C,3.100000*%
%ADD13C,3.529000*%
%ADD14RoundRect,0.050000X-1.300000X-1.300000X1.300000X-1.300000X1.300000X1.300000X-1.300000X1.300000X0*%
%ADD15RoundRect,0.050000X-0.889000X-0.889000X0.889000X-0.889000X0.889000X0.889000X-0.889000X0.889000X0*%
%ADD16C,2.005000*%
%ADD17RoundRect,0.050000X-0.400000X0.500000X-0.400000X-0.500000X0.400000X-0.500000X0.400000X0.500000X0*%
%ADD18C,1.000000*%
%ADD19C,0.700000*%
%ADD20RoundRect,0.050000X-0.750000X0.350000X-0.750000X-0.350000X0.750000X-0.350000X0.750000X0.350000X0*%
G04 APERTURE END LIST*
D10*
%TO.C,*%
X84625000Y-500000D03*
X84625000Y-3000000D03*
%TD*%
D11*
%TO.C,S16*%
X70500000Y24400000D03*
D12*
X71000000Y28150000D03*
X76000000Y30350000D03*
X76000000Y30350000D03*
D13*
X76000000Y24400000D03*
D12*
X81000000Y28150000D03*
D11*
X81500000Y24400000D03*
D14*
X79275000Y30350000D03*
X67725000Y28150000D03*
%TD*%
D15*
%TO.C,REF\u002A\u002A*%
X87500000Y42900000D03*
%TD*%
D11*
%TO.C,S2*%
X-5500000Y38000000D03*
D12*
X-5000000Y41750000D03*
X0Y43950000D03*
X0Y43950000D03*
D13*
X0Y38000000D03*
D12*
X5000000Y41750000D03*
D11*
X5500000Y38000000D03*
D14*
X3275000Y43950000D03*
X-8275000Y41750000D03*
%TD*%
D11*
%TO.C,S11*%
X51500000Y9000000D03*
D12*
X52000000Y12750000D03*
X57000000Y14950000D03*
X57000000Y14950000D03*
D13*
X57000000Y9000000D03*
D12*
X62000000Y12750000D03*
D11*
X62500000Y9000000D03*
D14*
X60275000Y14950000D03*
X48725000Y12750000D03*
%TD*%
D15*
%TO.C,D5*%
X15190000Y42300000D03*
D16*
X22810000Y42300000D03*
%TD*%
D11*
%TO.C,S12*%
X51500000Y28000000D03*
D12*
X52000000Y31750000D03*
X57000000Y33950000D03*
X57000000Y33950000D03*
D13*
X57000000Y28000000D03*
D12*
X62000000Y31750000D03*
D11*
X62500000Y28000000D03*
D14*
X60275000Y33950000D03*
X48725000Y31750000D03*
%TD*%
D11*
%TO.C,S4*%
X13500000Y28000000D03*
D12*
X14000000Y31750000D03*
X19000000Y33950000D03*
X19000000Y33950000D03*
D13*
X19000000Y28000000D03*
D12*
X24000000Y31750000D03*
D11*
X24500000Y28000000D03*
D14*
X22275000Y33950000D03*
X10725000Y31750000D03*
%TD*%
D11*
%TO.C,S17*%
X70500000Y43400000D03*
D12*
X71000000Y47150000D03*
X76000000Y49350000D03*
X76000000Y49350000D03*
D13*
X76000000Y43400000D03*
D12*
X81000000Y47150000D03*
D11*
X81500000Y43400000D03*
D14*
X79275000Y49350000D03*
X67725000Y47150000D03*
%TD*%
D15*
%TO.C,D7*%
X34190000Y4300000D03*
D16*
X41810000Y4300000D03*
%TD*%
D15*
%TO.C,REF\u002A\u002A*%
X87500000Y50400000D03*
%TD*%
%TO.C,D10*%
X34190000Y61300000D03*
D16*
X41810000Y61300000D03*
%TD*%
D11*
%TO.C,S14*%
X51500000Y66000000D03*
D12*
X52000000Y69750000D03*
X57000000Y71950000D03*
X57000000Y71950000D03*
D13*
X57000000Y66000000D03*
D12*
X62000000Y69750000D03*
D11*
X62500000Y66000000D03*
D14*
X60275000Y71950000D03*
X48725000Y69750000D03*
%TD*%
D15*
%TO.C,D3*%
X-3810000Y52300000D03*
D16*
X3810000Y52300000D03*
%TD*%
D15*
%TO.C,D9*%
X34190000Y42300000D03*
D16*
X41810000Y42300000D03*
%TD*%
D15*
%TO.C,D18*%
X72190000Y57700000D03*
D16*
X79810000Y57700000D03*
%TD*%
D15*
%TO.C,D8*%
X34190000Y23300000D03*
D16*
X41810000Y23300000D03*
%TD*%
D15*
%TO.C,D13*%
X53190000Y42300000D03*
D16*
X60810000Y42300000D03*
%TD*%
D11*
%TO.C,S8*%
X32500000Y28000000D03*
D12*
X33000000Y31750000D03*
X38000000Y33950000D03*
X38000000Y33950000D03*
D13*
X38000000Y28000000D03*
D12*
X43000000Y31750000D03*
D11*
X43500000Y28000000D03*
D14*
X41275000Y33950000D03*
X29725000Y31750000D03*
%TD*%
D15*
%TO.C,REF\u002A\u002A*%
X87500000Y52900000D03*
%TD*%
%TO.C,REF\u002A\u002A*%
X87500000Y35400000D03*
%TD*%
D11*
%TO.C,S5*%
X13500000Y47000000D03*
D12*
X14000000Y50750000D03*
X19000000Y52950000D03*
X19000000Y52950000D03*
D13*
X19000000Y47000000D03*
D12*
X24000000Y50750000D03*
D11*
X24500000Y47000000D03*
D14*
X22275000Y52950000D03*
X10725000Y50750000D03*
%TD*%
D11*
%TO.C,S10*%
X32500000Y66000000D03*
D12*
X33000000Y69750000D03*
X38000000Y71950000D03*
X38000000Y71950000D03*
D13*
X38000000Y66000000D03*
D12*
X43000000Y69750000D03*
D11*
X43500000Y66000000D03*
D14*
X41275000Y71950000D03*
X29725000Y69750000D03*
%TD*%
D15*
%TO.C,REF\u002A\u002A*%
X87500000Y45400000D03*
%TD*%
D11*
%TO.C,S1*%
X-5500000Y19000000D03*
D12*
X-5000000Y22750000D03*
X0Y24950000D03*
X0Y24950000D03*
D13*
X0Y19000000D03*
D12*
X5000000Y22750000D03*
D11*
X5500000Y19000000D03*
D14*
X3275000Y24950000D03*
X-8275000Y22750000D03*
%TD*%
D15*
%TO.C,REF\u002A\u002A*%
X87500000Y37900000D03*
%TD*%
%TO.C,REF\u002A\u002A*%
X87500000Y47900000D03*
%TD*%
%TO.C,REF\u002A\u002A*%
X87500000Y40400000D03*
%TD*%
D11*
%TO.C,S13*%
X51500000Y47000000D03*
D12*
X52000000Y50750000D03*
X57000000Y52950000D03*
X57000000Y52950000D03*
D13*
X57000000Y47000000D03*
D12*
X62000000Y50750000D03*
D11*
X62500000Y47000000D03*
D14*
X60275000Y52950000D03*
X48725000Y50750000D03*
%TD*%
D11*
%TO.C,S18*%
X70500000Y62400000D03*
D12*
X71000000Y66150000D03*
X76000000Y68350000D03*
X76000000Y68350000D03*
D13*
X76000000Y62400000D03*
D12*
X81000000Y66150000D03*
D11*
X81500000Y62400000D03*
D14*
X79275000Y68350000D03*
X67725000Y66150000D03*
%TD*%
D15*
%TO.C,D14*%
X53190000Y61300000D03*
D16*
X60810000Y61300000D03*
%TD*%
D11*
%TO.C,S9*%
X32500000Y47000000D03*
D12*
X33000000Y50750000D03*
X38000000Y52950000D03*
X38000000Y52950000D03*
D13*
X38000000Y47000000D03*
D12*
X43000000Y50750000D03*
D11*
X43500000Y47000000D03*
D14*
X41275000Y52950000D03*
X29725000Y50750000D03*
%TD*%
D11*
%TO.C,S15*%
X70500000Y5400000D03*
D12*
X71000000Y9150000D03*
X76000000Y11350000D03*
X76000000Y11350000D03*
D13*
X76000000Y5400000D03*
D12*
X81000000Y9150000D03*
D11*
X81500000Y5400000D03*
D14*
X79275000Y11350000D03*
X67725000Y9150000D03*
%TD*%
D15*
%TO.C,D16*%
X72190000Y19700000D03*
D16*
X79810000Y19700000D03*
%TD*%
D15*
%TO.C,D4*%
X15190000Y23300000D03*
D16*
X22810000Y23300000D03*
%TD*%
D11*
%TO.C,S6*%
X13500000Y66000000D03*
D12*
X14000000Y69750000D03*
X19000000Y71950000D03*
X19000000Y71950000D03*
D13*
X19000000Y66000000D03*
D12*
X24000000Y69750000D03*
D11*
X24500000Y66000000D03*
D14*
X22275000Y71950000D03*
X10725000Y69750000D03*
%TD*%
D15*
%TO.C,REF\u002A\u002A*%
X87500000Y55400000D03*
%TD*%
%TO.C,D12*%
X53190000Y23300000D03*
D16*
X60810000Y23300000D03*
%TD*%
D15*
%TO.C,D15*%
X72190000Y700000D03*
D16*
X79810000Y700000D03*
%TD*%
D15*
%TO.C,D17*%
X72190000Y38700000D03*
D16*
X79810000Y38700000D03*
%TD*%
D15*
%TO.C,D2*%
X-3810000Y33300000D03*
D16*
X3810000Y33300000D03*
%TD*%
D17*
%TO.C,*%
X83645000Y13175000D03*
X85855000Y13175000D03*
D18*
X84755000Y15325000D03*
X84755000Y15325000D03*
D19*
X81425000Y16825000D03*
X84925000Y16825000D03*
D18*
X84755000Y18325000D03*
X84755000Y18325000D03*
D17*
X83645000Y20475000D03*
X85855000Y20475000D03*
D20*
X82995000Y14575000D03*
X82995000Y17575000D03*
X82995000Y19075000D03*
%TD*%
D11*
%TO.C,S3*%
X-5500000Y57000000D03*
D12*
X-5000000Y60750000D03*
X0Y62950000D03*
X0Y62950000D03*
D13*
X0Y57000000D03*
D12*
X5000000Y60750000D03*
D11*
X5500000Y57000000D03*
D14*
X3275000Y62950000D03*
X-8275000Y60750000D03*
%TD*%
D10*
%TO.C,*%
X85250000Y32950000D03*
X85250000Y30450000D03*
%TD*%
D15*
%TO.C,D11*%
X53190000Y4300000D03*
D16*
X60810000Y4300000D03*
%TD*%
D11*
%TO.C,S7*%
X32500000Y9000000D03*
D12*
X33000000Y12750000D03*
X38000000Y14950000D03*
X38000000Y14950000D03*
D13*
X38000000Y9000000D03*
D12*
X43000000Y12750000D03*
D11*
X43500000Y9000000D03*
D14*
X41275000Y14950000D03*
X29725000Y12750000D03*
%TD*%
D15*
%TO.C,D6*%
X15190000Y61300000D03*
D16*
X22810000Y61300000D03*
%TD*%
D15*
%TO.C,D1*%
X-3810000Y14300000D03*
D16*
X3810000Y14300000D03*
%TD*%
M02*
