%TF.GenerationSoftware,KiCad,Pcbnew,7.0.7*%
%TF.CreationDate,2023-11-30T20:13:54-05:00*%
%TF.ProjectId,pcb,7063622e-6b69-4636-9164-5f7063625858,v1.0.0*%
%TF.SameCoordinates,Original*%
%TF.FileFunction,Legend,Top*%
%TF.FilePolarity,Positive*%
%FSLAX46Y46*%
G04 Gerber Fmt 4.6, Leading zero omitted, Abs format (unit mm)*
G04 Created by KiCad (PCBNEW 7.0.7) date 2023-11-30 20:13:54*
%MOMM*%
%LPD*%
G01*
G04 APERTURE LIST*
%ADD10C,0.100000*%
G04 APERTURE END LIST*
D10*
%TO.C,D5*%
X18250000Y42300000D02*
X18650000Y42300000D01*
X18650000Y42300000D02*
X18650000Y42850000D01*
X18650000Y42300000D02*
X18650000Y41750000D01*
X18650000Y42300000D02*
X19250000Y42700000D01*
X19250000Y42700000D02*
X19250000Y41900000D01*
X19250000Y42300000D02*
X19750000Y42300000D01*
X19250000Y41900000D02*
X18650000Y42300000D01*
%TO.C,D7*%
X37250000Y4300000D02*
X37650000Y4300000D01*
X37650000Y4300000D02*
X37650000Y4850000D01*
X37650000Y4300000D02*
X37650000Y3750000D01*
X37650000Y4300000D02*
X38250000Y4700000D01*
X38250000Y4700000D02*
X38250000Y3900000D01*
X38250000Y4300000D02*
X38750000Y4300000D01*
X38250000Y3900000D02*
X37650000Y4300000D01*
%TO.C,D10*%
X37250000Y61300000D02*
X37650000Y61300000D01*
X37650000Y61300000D02*
X37650000Y61850000D01*
X37650000Y61300000D02*
X37650000Y60750000D01*
X37650000Y61300000D02*
X38250000Y61700000D01*
X38250000Y61700000D02*
X38250000Y60900000D01*
X38250000Y61300000D02*
X38750000Y61300000D01*
X38250000Y60900000D02*
X37650000Y61300000D01*
%TO.C,D3*%
X-750000Y52300000D02*
X-350000Y52300000D01*
X-350000Y52300000D02*
X-350000Y52850000D01*
X-350000Y52300000D02*
X-350000Y51750000D01*
X-350000Y52300000D02*
X250000Y52700000D01*
X250000Y52700000D02*
X250000Y51900000D01*
X250000Y52300000D02*
X750000Y52300000D01*
X250000Y51900000D02*
X-350000Y52300000D01*
%TO.C,D9*%
X37250000Y42300000D02*
X37650000Y42300000D01*
X37650000Y42300000D02*
X37650000Y42850000D01*
X37650000Y42300000D02*
X37650000Y41750000D01*
X37650000Y42300000D02*
X38250000Y42700000D01*
X38250000Y42700000D02*
X38250000Y41900000D01*
X38250000Y42300000D02*
X38750000Y42300000D01*
X38250000Y41900000D02*
X37650000Y42300000D01*
%TO.C,D18*%
X75250000Y57700000D02*
X75650000Y57700000D01*
X75650000Y57700000D02*
X75650000Y58250000D01*
X75650000Y57700000D02*
X75650000Y57150000D01*
X75650000Y57700000D02*
X76250000Y58100000D01*
X76250000Y58100000D02*
X76250000Y57300000D01*
X76250000Y57700000D02*
X76750000Y57700000D01*
X76250000Y57300000D02*
X75650000Y57700000D01*
%TO.C,D8*%
X37250000Y23300000D02*
X37650000Y23300000D01*
X37650000Y23300000D02*
X37650000Y23850000D01*
X37650000Y23300000D02*
X37650000Y22750000D01*
X37650000Y23300000D02*
X38250000Y23700000D01*
X38250000Y23700000D02*
X38250000Y22900000D01*
X38250000Y23300000D02*
X38750000Y23300000D01*
X38250000Y22900000D02*
X37650000Y23300000D01*
%TO.C,D13*%
X56250000Y42300000D02*
X56650000Y42300000D01*
X56650000Y42300000D02*
X56650000Y42850000D01*
X56650000Y42300000D02*
X56650000Y41750000D01*
X56650000Y42300000D02*
X57250000Y42700000D01*
X57250000Y42700000D02*
X57250000Y41900000D01*
X57250000Y42300000D02*
X57750000Y42300000D01*
X57250000Y41900000D02*
X56650000Y42300000D01*
%TO.C,D14*%
X56250000Y61300000D02*
X56650000Y61300000D01*
X56650000Y61300000D02*
X56650000Y61850000D01*
X56650000Y61300000D02*
X56650000Y60750000D01*
X56650000Y61300000D02*
X57250000Y61700000D01*
X57250000Y61700000D02*
X57250000Y60900000D01*
X57250000Y61300000D02*
X57750000Y61300000D01*
X57250000Y60900000D02*
X56650000Y61300000D01*
%TO.C,D16*%
X75250000Y19700000D02*
X75650000Y19700000D01*
X75650000Y19700000D02*
X75650000Y20250000D01*
X75650000Y19700000D02*
X75650000Y19150000D01*
X75650000Y19700000D02*
X76250000Y20100000D01*
X76250000Y20100000D02*
X76250000Y19300000D01*
X76250000Y19700000D02*
X76750000Y19700000D01*
X76250000Y19300000D02*
X75650000Y19700000D01*
%TO.C,D4*%
X18250000Y23300000D02*
X18650000Y23300000D01*
X18650000Y23300000D02*
X18650000Y23850000D01*
X18650000Y23300000D02*
X18650000Y22750000D01*
X18650000Y23300000D02*
X19250000Y23700000D01*
X19250000Y23700000D02*
X19250000Y22900000D01*
X19250000Y23300000D02*
X19750000Y23300000D01*
X19250000Y22900000D02*
X18650000Y23300000D01*
%TO.C,D12*%
X56250000Y23300000D02*
X56650000Y23300000D01*
X56650000Y23300000D02*
X56650000Y23850000D01*
X56650000Y23300000D02*
X56650000Y22750000D01*
X56650000Y23300000D02*
X57250000Y23700000D01*
X57250000Y23700000D02*
X57250000Y22900000D01*
X57250000Y23300000D02*
X57750000Y23300000D01*
X57250000Y22900000D02*
X56650000Y23300000D01*
%TO.C,D15*%
X75250000Y700000D02*
X75650000Y700000D01*
X75650000Y700000D02*
X75650000Y1250000D01*
X75650000Y700000D02*
X75650000Y150000D01*
X75650000Y700000D02*
X76250000Y1100000D01*
X76250000Y1100000D02*
X76250000Y300000D01*
X76250000Y700000D02*
X76750000Y700000D01*
X76250000Y300000D02*
X75650000Y700000D01*
%TO.C,D17*%
X75250000Y38700000D02*
X75650000Y38700000D01*
X75650000Y38700000D02*
X75650000Y39250000D01*
X75650000Y38700000D02*
X75650000Y38150000D01*
X75650000Y38700000D02*
X76250000Y39100000D01*
X76250000Y39100000D02*
X76250000Y38300000D01*
X76250000Y38700000D02*
X76750000Y38700000D01*
X76250000Y38300000D02*
X75650000Y38700000D01*
%TO.C,D2*%
X-750000Y33300000D02*
X-350000Y33300000D01*
X-350000Y33300000D02*
X-350000Y33850000D01*
X-350000Y33300000D02*
X-350000Y32750000D01*
X-350000Y33300000D02*
X250000Y33700000D01*
X250000Y33700000D02*
X250000Y32900000D01*
X250000Y33300000D02*
X750000Y33300000D01*
X250000Y32900000D02*
X-350000Y33300000D01*
%TO.C,D11*%
X56250000Y4300000D02*
X56650000Y4300000D01*
X56650000Y4300000D02*
X56650000Y4850000D01*
X56650000Y4300000D02*
X56650000Y3750000D01*
X56650000Y4300000D02*
X57250000Y4700000D01*
X57250000Y4700000D02*
X57250000Y3900000D01*
X57250000Y4300000D02*
X57750000Y4300000D01*
X57250000Y3900000D02*
X56650000Y4300000D01*
%TO.C,D6*%
X18250000Y61300000D02*
X18650000Y61300000D01*
X18650000Y61300000D02*
X18650000Y61850000D01*
X18650000Y61300000D02*
X18650000Y60750000D01*
X18650000Y61300000D02*
X19250000Y61700000D01*
X19250000Y61700000D02*
X19250000Y60900000D01*
X19250000Y61300000D02*
X19750000Y61300000D01*
X19250000Y60900000D02*
X18650000Y61300000D01*
%TO.C,D1*%
X-750000Y14300000D02*
X-350000Y14300000D01*
X-350000Y14300000D02*
X-350000Y14850000D01*
X-350000Y14300000D02*
X-350000Y13750000D01*
X-350000Y14300000D02*
X250000Y14700000D01*
X250000Y14700000D02*
X250000Y13900000D01*
X250000Y14300000D02*
X750000Y14300000D01*
X250000Y13900000D02*
X-350000Y14300000D01*
%TD*%
M02*
