%TF.GenerationSoftware,KiCad,Pcbnew,7.0.7*%
%TF.CreationDate,2023-11-30T20:13:54-05:00*%
%TF.ProjectId,pcb,7063622e-6b69-4636-9164-5f7063625858,v1.0.0*%
%TF.SameCoordinates,Original*%
%TF.FileFunction,Paste,Bot*%
%TF.FilePolarity,Positive*%
%FSLAX46Y46*%
G04 Gerber Fmt 4.6, Leading zero omitted, Abs format (unit mm)*
G04 Created by KiCad (PCBNEW 7.0.7) date 2023-11-30 20:13:54*
%MOMM*%
%LPD*%
G01*
G04 APERTURE LIST*
%ADD10R,2.600000X2.600000*%
%ADD11R,0.800000X1.000000*%
%ADD12R,1.500000X0.700000*%
G04 APERTURE END LIST*
D10*
%TO.C,S16*%
X72725000Y30350000D03*
X84275000Y28150000D03*
%TD*%
%TO.C,S2*%
X-3275000Y43950000D03*
X8275000Y41750000D03*
%TD*%
%TO.C,S11*%
X53725000Y14950000D03*
X65275000Y12750000D03*
%TD*%
%TO.C,S12*%
X53725000Y33950000D03*
X65275000Y31750000D03*
%TD*%
%TO.C,S4*%
X15725000Y33950000D03*
X27275000Y31750000D03*
%TD*%
%TO.C,S17*%
X72725000Y49350000D03*
X84275000Y47150000D03*
%TD*%
%TO.C,S14*%
X53725000Y71950000D03*
X65275000Y69750000D03*
%TD*%
%TO.C,S8*%
X34725000Y33950000D03*
X46275000Y31750000D03*
%TD*%
%TO.C,S5*%
X15725000Y52950000D03*
X27275000Y50750000D03*
%TD*%
%TO.C,S10*%
X34725000Y71950000D03*
X46275000Y69750000D03*
%TD*%
%TO.C,S1*%
X-3275000Y24950000D03*
X8275000Y22750000D03*
%TD*%
%TO.C,S13*%
X53725000Y52950000D03*
X65275000Y50750000D03*
%TD*%
%TO.C,S18*%
X72725000Y68350000D03*
X84275000Y66150000D03*
%TD*%
%TO.C,S9*%
X34725000Y52950000D03*
X46275000Y50750000D03*
%TD*%
%TO.C,S15*%
X72725000Y11350000D03*
X84275000Y9150000D03*
%TD*%
%TO.C,S6*%
X15725000Y71950000D03*
X27275000Y69750000D03*
%TD*%
D11*
%TO.C,*%
X83645000Y13175000D03*
X85855000Y13175000D03*
X83645000Y20475000D03*
X85855000Y20475000D03*
D12*
X82995000Y19075000D03*
X82995000Y16075000D03*
X82995000Y14575000D03*
%TD*%
D10*
%TO.C,S3*%
X-3275000Y62950000D03*
X8275000Y60750000D03*
%TD*%
%TO.C,S7*%
X34725000Y14950000D03*
X46275000Y12750000D03*
%TD*%
M02*
