M48
; DRILL file {KiCad 7.0.7} date Thu 30 Nov 2023 08:13:52 PM
; FORMAT={-:-/ absolute / inch / decimal}
; #@! TF.CreationDate,2023-11-30T20:13:52-05:00
; #@! TF.GenerationSoftware,Kicad,Pcbnew,7.0.7
; #@! TF.FileFunction,NonPlated,1,2,NPTH
FMAT,2
INCH
; #@! TA.AperFunction,NonPlated,NPTH,ComponentDrill
T1C0.0354
; #@! TA.AperFunction,NonPlated,NPTH,ComponentDrill
T2C0.0670
; #@! TA.AperFunction,NonPlated,NPTH,ComponentDrill
T3C0.1181
; #@! TA.AperFunction,NonPlated,NPTH,ComponentDrill
T4C0.1350
%
G90
G05
T1
X3.3368Y0.7215
X3.3368Y0.7215
X3.3368Y0.6033
X3.3368Y0.6033
T2
X-0.2165Y2.2441
X-0.2165Y1.4961
X-0.2165Y0.748
X0.2165Y2.2441
X0.2165Y1.4961
X0.2165Y0.748
X0.5315Y2.5984
X0.5315Y1.8504
X0.5315Y1.1024
X0.9646Y2.5984
X0.9646Y1.8504
X0.9646Y1.1024
X1.2795Y2.5984
X1.2795Y1.8504
X1.2795Y1.1024
X1.2795Y0.3543
X1.7126Y2.5984
X1.7126Y1.8504
X1.7126Y1.1024
X1.7126Y0.3543
X2.0276Y2.5984
X2.0276Y1.8504
X2.0276Y1.1024
X2.0276Y0.3543
X2.4606Y2.5984
X2.4606Y1.8504
X2.4606Y1.1024
X2.4606Y0.3543
X2.7756Y2.4567
X2.7756Y1.7087
X2.7756Y0.9606
X2.7756Y0.2126
X3.2087Y2.4567
X3.2087Y1.7087
X3.2087Y0.9606
X3.2087Y0.2126
T3
X-0.1969Y2.3917
X-0.1969Y1.6437
X-0.1969Y0.8957
X0.0Y2.4783
X0.0Y2.4783
X0.0Y1.7303
X0.0Y1.7303
X0.0Y0.9823
X0.0Y0.9823
X0.1969Y2.3917
X0.1969Y1.6437
X0.1969Y0.8957
X0.5512Y2.7461
X0.5512Y1.998
X0.5512Y1.25
X0.748Y2.8327
X0.748Y2.8327
X0.748Y2.0846
X0.748Y2.0846
X0.748Y1.3366
X0.748Y1.3366
X0.9449Y2.7461
X0.9449Y1.998
X0.9449Y1.25
X1.2992Y2.7461
X1.2992Y1.998
X1.2992Y1.25
X1.2992Y0.502
X1.4961Y2.8327
X1.4961Y2.8327
X1.4961Y2.0846
X1.4961Y2.0846
X1.4961Y1.3366
X1.4961Y1.3366
X1.4961Y0.5886
X1.4961Y0.5886
X1.6929Y2.7461
X1.6929Y1.998
X1.6929Y1.25
X1.6929Y0.502
X2.0472Y2.7461
X2.0472Y1.998
X2.0472Y1.25
X2.0472Y0.502
X2.2441Y2.8327
X2.2441Y2.8327
X2.2441Y2.0846
X2.2441Y2.0846
X2.2441Y1.3366
X2.2441Y1.3366
X2.2441Y0.5886
X2.2441Y0.5886
X2.4409Y2.7461
X2.4409Y1.998
X2.4409Y1.25
X2.4409Y0.502
X2.7953Y2.6043
X2.7953Y1.8563
X2.7953Y1.1083
X2.7953Y0.3602
X2.9921Y2.6909
X2.9921Y2.6909
X2.9921Y1.9429
X2.9921Y1.9429
X2.9921Y1.1949
X2.9921Y1.1949
X2.9921Y0.4469
X2.9921Y0.4469
X3.189Y2.6043
X3.189Y1.8563
X3.189Y1.1083
X3.189Y0.3602
T4
X0.0Y2.2441
X0.0Y1.4961
X0.0Y0.748
X0.748Y2.5984
X0.748Y1.8504
X0.748Y1.1024
X1.4961Y2.5984
X1.4961Y1.8504
X1.4961Y1.1024
X1.4961Y0.3543
X2.2441Y2.5984
X2.2441Y1.8504
X2.2441Y1.1024
X2.2441Y0.3543
X2.9921Y2.4567
X2.9921Y1.7087
X2.9921Y0.9606
X2.9921Y0.2126
T0
M30
