%TF.GenerationSoftware,KiCad,Pcbnew,7.0.7*%
%TF.CreationDate,2023-11-30T20:13:54-05:00*%
%TF.ProjectId,pcb,7063622e-6b69-4636-9164-5f7063625858,v1.0.0*%
%TF.SameCoordinates,Original*%
%TF.FileFunction,Copper,L2,Bot*%
%TF.FilePolarity,Positive*%
%FSLAX46Y46*%
G04 Gerber Fmt 4.6, Leading zero omitted, Abs format (unit mm)*
G04 Created by KiCad (PCBNEW 7.0.7) date 2023-11-30 20:13:54*
%MOMM*%
%LPD*%
G01*
G04 APERTURE LIST*
%TA.AperFunction,ComponentPad*%
%ADD10C,1.200000*%
%TD*%
%TA.AperFunction,SMDPad,CuDef*%
%ADD11R,2.600000X2.600000*%
%TD*%
%TA.AperFunction,ComponentPad*%
%ADD12R,1.778000X1.778000*%
%TD*%
%TA.AperFunction,ComponentPad*%
%ADD13C,1.905000*%
%TD*%
%TA.AperFunction,ComponentPad*%
%ADD14C,0.600000*%
%TD*%
%TA.AperFunction,SMDPad,CuDef*%
%ADD15R,0.800000X1.000000*%
%TD*%
%TA.AperFunction,SMDPad,CuDef*%
%ADD16R,1.500000X0.700000*%
%TD*%
%TA.AperFunction,Conductor*%
%ADD17C,0.250000*%
%TD*%
G04 APERTURE END LIST*
D10*
%TO.P,,1*%
%TO.N,POS*%
X84625000Y-500000D03*
%TO.P,,2*%
%TO.N,GND*%
X84625000Y-3000000D03*
%TD*%
D11*
%TO.P,S16,1*%
%TO.N,inner_col_far*%
X72725000Y30350000D03*
%TO.P,S16,2*%
%TO.N,col_far*%
X84275000Y28150000D03*
%TD*%
D12*
%TO.P,REF\u002A\u002A,1*%
%TO.N,row_outer*%
X87500000Y42900000D03*
%TD*%
D11*
%TO.P,S2,1*%
%TO.N,home_col_pinky*%
X-3275000Y43950000D03*
%TO.P,S2,2*%
%TO.N,col_pinky*%
X8275000Y41750000D03*
%TD*%
%TO.P,S11,1*%
%TO.N,thumb_col_index*%
X53725000Y14950000D03*
%TO.P,S11,2*%
%TO.N,col_index*%
X65275000Y12750000D03*
%TD*%
D12*
%TO.P,D5,1*%
%TO.N,row_home*%
X15190000Y42300000D03*
D13*
%TO.P,D5,2*%
%TO.N,home_col_ring*%
X22810000Y42300000D03*
%TD*%
D14*
%TO.P,REF\u002A\u002A,1*%
%TO.N,inner_col_pinky*%
X0Y22000000D03*
%TD*%
D11*
%TO.P,S12,1*%
%TO.N,inner_col_index*%
X53725000Y33950000D03*
%TO.P,S12,2*%
%TO.N,col_index*%
X65275000Y31750000D03*
%TD*%
D14*
%TO.P,REF\u002A\u002A,1*%
%TO.N,col_pinky*%
X0Y35000000D03*
%TD*%
%TO.P,REF\u002A\u002A,1*%
%TO.N,home_col_ring*%
X19000000Y50000000D03*
%TD*%
D11*
%TO.P,S4,1*%
%TO.N,inner_col_ring*%
X15725000Y33950000D03*
%TO.P,S4,2*%
%TO.N,col_ring*%
X27275000Y31750000D03*
%TD*%
%TO.P,S17,1*%
%TO.N,home_col_far*%
X72725000Y49350000D03*
%TO.P,S17,2*%
%TO.N,col_far*%
X84275000Y47150000D03*
%TD*%
D12*
%TO.P,D7,1*%
%TO.N,row_thumb*%
X34190000Y4300000D03*
D13*
%TO.P,D7,2*%
%TO.N,thumb_col_middle*%
X41810000Y4300000D03*
%TD*%
D14*
%TO.P,REF\u002A\u002A,1*%
%TO.N,outer_col_middle*%
X38000000Y69000000D03*
%TD*%
D12*
%TO.P,REF\u002A\u002A,1*%
%TO.N,col_middle*%
X87500000Y50400000D03*
%TD*%
%TO.P,D10,1*%
%TO.N,row_outer*%
X34190000Y61300000D03*
D13*
%TO.P,D10,2*%
%TO.N,outer_col_middle*%
X41810000Y61300000D03*
%TD*%
D14*
%TO.P,REF\u002A\u002A,1*%
%TO.N,col_ring*%
X19000000Y25000000D03*
%TD*%
%TO.P,REF\u002A\u002A,1*%
%TO.N,thumb_col_index*%
X57000000Y12000000D03*
%TD*%
%TO.P,REF\u002A\u002A,1*%
%TO.N,inner_col_middle*%
X38000000Y31000000D03*
%TD*%
%TO.P,REF\u002A\u002A,1*%
%TO.N,home_col_far*%
X76000000Y46400000D03*
%TD*%
D11*
%TO.P,S14,1*%
%TO.N,outer_col_index*%
X53725000Y71950000D03*
%TO.P,S14,2*%
%TO.N,col_index*%
X65275000Y69750000D03*
%TD*%
D12*
%TO.P,D3,1*%
%TO.N,row_outer*%
X-3810000Y52300000D03*
D13*
%TO.P,D3,2*%
%TO.N,outer_col_pinky*%
X3810000Y52300000D03*
%TD*%
D14*
%TO.P,REF\u002A\u002A,1*%
%TO.N,col_ring*%
X19000000Y63000000D03*
%TD*%
%TO.P,REF\u002A\u002A,1*%
%TO.N,outer_col_ring*%
X19000000Y69000000D03*
%TD*%
D12*
%TO.P,D9,1*%
%TO.N,row_home*%
X34190000Y42300000D03*
D13*
%TO.P,D9,2*%
%TO.N,home_col_middle*%
X41810000Y42300000D03*
%TD*%
D14*
%TO.P,REF\u002A\u002A,1*%
%TO.N,col_ring*%
X19000000Y44000000D03*
%TD*%
D12*
%TO.P,D18,1*%
%TO.N,row_outer*%
X72190000Y57700000D03*
D13*
%TO.P,D18,2*%
%TO.N,outer_col_far*%
X79810000Y57700000D03*
%TD*%
D12*
%TO.P,D8,1*%
%TO.N,row_inner*%
X34190000Y23300000D03*
D13*
%TO.P,D8,2*%
%TO.N,inner_col_middle*%
X41810000Y23300000D03*
%TD*%
D12*
%TO.P,D13,1*%
%TO.N,row_home*%
X53190000Y42300000D03*
D13*
%TO.P,D13,2*%
%TO.N,home_col_index*%
X60810000Y42300000D03*
%TD*%
D14*
%TO.P,REF\u002A\u002A,1*%
%TO.N,outer_col_index*%
X57000000Y69000000D03*
%TD*%
%TO.P,REF\u002A\u002A,1*%
%TO.N,col_pinky*%
X0Y16000000D03*
%TD*%
D11*
%TO.P,S8,1*%
%TO.N,inner_col_middle*%
X34725000Y33950000D03*
%TO.P,S8,2*%
%TO.N,col_middle*%
X46275000Y31750000D03*
%TD*%
D12*
%TO.P,REF\u002A\u002A,1*%
%TO.N,col_index*%
X87500000Y52900000D03*
%TD*%
D14*
%TO.P,REF\u002A\u002A,1*%
%TO.N,col_far*%
X76000000Y59400000D03*
%TD*%
D12*
%TO.P,REF\u002A\u002A,1*%
%TO.N,row_thumb*%
X87500000Y35400000D03*
%TD*%
D11*
%TO.P,S5,1*%
%TO.N,home_col_ring*%
X15725000Y52950000D03*
%TO.P,S5,2*%
%TO.N,col_ring*%
X27275000Y50750000D03*
%TD*%
D14*
%TO.P,REF\u002A\u002A,1*%
%TO.N,thumb_col_far*%
X76000000Y8400000D03*
%TD*%
D11*
%TO.P,S10,1*%
%TO.N,outer_col_middle*%
X34725000Y71950000D03*
%TO.P,S10,2*%
%TO.N,col_middle*%
X46275000Y69750000D03*
%TD*%
D12*
%TO.P,REF\u002A\u002A,1*%
%TO.N,col_pinky*%
X87500000Y45400000D03*
%TD*%
D11*
%TO.P,S1,1*%
%TO.N,inner_col_pinky*%
X-3275000Y24950000D03*
%TO.P,S1,2*%
%TO.N,col_pinky*%
X8275000Y22750000D03*
%TD*%
D14*
%TO.P,REF\u002A\u002A,1*%
%TO.N,col_pinky*%
X0Y54000000D03*
%TD*%
%TO.P,REF\u002A\u002A,1*%
%TO.N,home_col_middle*%
X38000000Y50000000D03*
%TD*%
%TO.P,REF\u002A\u002A,1*%
%TO.N,col_far*%
X76000000Y40400000D03*
%TD*%
%TO.P,REF\u002A\u002A,1*%
%TO.N,col_far*%
X76000000Y21400000D03*
%TD*%
D12*
%TO.P,REF\u002A\u002A,1*%
%TO.N,row_inner*%
X87500000Y37900000D03*
%TD*%
%TO.P,REF\u002A\u002A,1*%
%TO.N,col_ring*%
X87500000Y47900000D03*
%TD*%
D14*
%TO.P,REF\u002A\u002A,1*%
%TO.N,col_middle*%
X38000000Y25000000D03*
%TD*%
%TO.P,REF\u002A\u002A,1*%
%TO.N,col_index*%
X57000000Y6000000D03*
%TD*%
%TO.P,REF\u002A\u002A,1*%
%TO.N,outer_col_pinky*%
X0Y60000000D03*
%TD*%
%TO.P,REF\u002A\u002A,1*%
%TO.N,col_middle*%
X38000000Y6000000D03*
%TD*%
%TO.P,REF\u002A\u002A,1*%
%TO.N,col_middle*%
X38000000Y63000000D03*
%TD*%
D12*
%TO.P,REF\u002A\u002A,1*%
%TO.N,row_home*%
X87500000Y40400000D03*
%TD*%
D11*
%TO.P,S13,1*%
%TO.N,home_col_index*%
X53725000Y52950000D03*
%TO.P,S13,2*%
%TO.N,col_index*%
X65275000Y50750000D03*
%TD*%
%TO.P,S18,1*%
%TO.N,outer_col_far*%
X72725000Y68350000D03*
%TO.P,S18,2*%
%TO.N,col_far*%
X84275000Y66150000D03*
%TD*%
D14*
%TO.P,REF\u002A\u002A,1*%
%TO.N,col_far*%
X76000000Y2400000D03*
%TD*%
D12*
%TO.P,D14,1*%
%TO.N,row_outer*%
X53190000Y61300000D03*
D13*
%TO.P,D14,2*%
%TO.N,outer_col_index*%
X60810000Y61300000D03*
%TD*%
D14*
%TO.P,REF\u002A\u002A,1*%
%TO.N,outer_col_far*%
X76000000Y65400000D03*
%TD*%
D11*
%TO.P,S9,1*%
%TO.N,home_col_middle*%
X34725000Y52950000D03*
%TO.P,S9,2*%
%TO.N,col_middle*%
X46275000Y50750000D03*
%TD*%
D14*
%TO.P,REF\u002A\u002A,1*%
%TO.N,inner_col_far*%
X76000000Y27400000D03*
%TD*%
D11*
%TO.P,S15,1*%
%TO.N,thumb_col_far*%
X72725000Y11350000D03*
%TO.P,S15,2*%
%TO.N,col_far*%
X84275000Y9150000D03*
%TD*%
D14*
%TO.P,REF\u002A\u002A,1*%
%TO.N,col_middle*%
X38000000Y44000000D03*
%TD*%
D12*
%TO.P,D16,1*%
%TO.N,row_inner*%
X72190000Y19700000D03*
D13*
%TO.P,D16,2*%
%TO.N,inner_col_far*%
X79810000Y19700000D03*
%TD*%
D12*
%TO.P,D4,1*%
%TO.N,row_inner*%
X15190000Y23300000D03*
D13*
%TO.P,D4,2*%
%TO.N,inner_col_ring*%
X22810000Y23300000D03*
%TD*%
D11*
%TO.P,S6,1*%
%TO.N,outer_col_ring*%
X15725000Y71950000D03*
%TO.P,S6,2*%
%TO.N,col_ring*%
X27275000Y69750000D03*
%TD*%
D12*
%TO.P,REF\u002A\u002A,1*%
%TO.N,col_far*%
X87500000Y55400000D03*
%TD*%
%TO.P,D12,1*%
%TO.N,row_inner*%
X53190000Y23300000D03*
D13*
%TO.P,D12,2*%
%TO.N,inner_col_index*%
X60810000Y23300000D03*
%TD*%
D14*
%TO.P,REF\u002A\u002A,1*%
%TO.N,inner_col_ring*%
X19000000Y31000000D03*
%TD*%
D12*
%TO.P,D15,1*%
%TO.N,row_thumb*%
X72190000Y700000D03*
D13*
%TO.P,D15,2*%
%TO.N,thumb_col_far*%
X79810000Y700000D03*
%TD*%
D14*
%TO.P,REF\u002A\u002A,1*%
%TO.N,thumb_col_middle*%
X38000000Y12000000D03*
%TD*%
D12*
%TO.P,D17,1*%
%TO.N,row_home*%
X72190000Y38700000D03*
D13*
%TO.P,D17,2*%
%TO.N,home_col_far*%
X79810000Y38700000D03*
%TD*%
D12*
%TO.P,D2,1*%
%TO.N,row_home*%
X-3810000Y33300000D03*
D13*
%TO.P,D2,2*%
%TO.N,home_col_pinky*%
X3810000Y33300000D03*
%TD*%
D15*
%TO.P,,*%
%TO.N,*%
X83645000Y13175000D03*
X85855000Y13175000D03*
D14*
%TO.N,POS*%
X81425000Y16825000D03*
%TO.N,RAW*%
X84925000Y16825000D03*
D15*
%TO.N,*%
X83645000Y20475000D03*
X85855000Y20475000D03*
D16*
%TO.P,,1*%
%TO.N,N/C*%
X82995000Y19075000D03*
%TO.P,,2*%
%TO.N,RAW*%
X82995000Y16075000D03*
%TO.P,,3*%
%TO.N,POS*%
X82995000Y14575000D03*
%TD*%
D14*
%TO.P,REF\u002A\u002A,1*%
%TO.N,col_index*%
X57000000Y44000000D03*
%TD*%
D11*
%TO.P,S3,1*%
%TO.N,outer_col_pinky*%
X-3275000Y62950000D03*
%TO.P,S3,2*%
%TO.N,col_pinky*%
X8275000Y60750000D03*
%TD*%
D10*
%TO.P,,1*%
%TO.N,RAW*%
X85250000Y32950000D03*
%TO.P,,2*%
%TO.N,GND*%
X85250000Y30450000D03*
%TD*%
D14*
%TO.P,REF\u002A\u002A,1*%
%TO.N,col_index*%
X57000000Y25000000D03*
%TD*%
%TO.P,REF\u002A\u002A,1*%
%TO.N,col_index*%
X57000000Y63000000D03*
%TD*%
%TO.P,REF\u002A\u002A,1*%
%TO.N,home_col_index*%
X57000000Y50000000D03*
%TD*%
%TO.P,REF\u002A\u002A,1*%
%TO.N,home_col_pinky*%
X0Y41000000D03*
%TD*%
%TO.P,REF\u002A\u002A,1*%
%TO.N,inner_col_index*%
X57000000Y31000000D03*
%TD*%
D12*
%TO.P,D11,1*%
%TO.N,row_thumb*%
X53190000Y4300000D03*
D13*
%TO.P,D11,2*%
%TO.N,thumb_col_index*%
X60810000Y4300000D03*
%TD*%
D11*
%TO.P,S7,1*%
%TO.N,thumb_col_middle*%
X34725000Y14950000D03*
%TO.P,S7,2*%
%TO.N,col_middle*%
X46275000Y12750000D03*
%TD*%
D12*
%TO.P,D6,1*%
%TO.N,row_outer*%
X15190000Y61300000D03*
D13*
%TO.P,D6,2*%
%TO.N,outer_col_ring*%
X22810000Y61300000D03*
%TD*%
D12*
%TO.P,D1,1*%
%TO.N,row_inner*%
X-3810000Y14300000D03*
D13*
%TO.P,D1,2*%
%TO.N,inner_col_pinky*%
X3810000Y14300000D03*
%TD*%
D17*
%TO.N,inner_col_pinky*%
X-3275000Y24950000D02*
X-2950000Y24950000D01*
X-2950000Y24950000D02*
X0Y22000000D01*
%TO.N,col_pinky*%
X4223350Y24625000D02*
X2089500Y22491150D01*
X2089500Y37089500D02*
X2089500Y51910500D01*
X2089500Y18089500D02*
X2089500Y32910500D01*
X4223350Y43625000D02*
X2089500Y41491150D01*
X2089500Y22491150D02*
X2089500Y18089500D01*
X6400000Y24625000D02*
X4223350Y24625000D01*
X2089500Y56089500D02*
X0Y54000000D01*
X4223350Y62625000D02*
X2089500Y60491150D01*
X6400000Y62625000D02*
X4223350Y62625000D01*
X8275000Y22750000D02*
X6400000Y24625000D01*
X2089500Y60491150D02*
X2089500Y56089500D01*
X2089500Y41491150D02*
X2089500Y37089500D01*
X0Y35000000D02*
X2089500Y37089500D01*
X6400000Y43625000D02*
X4223350Y43625000D01*
X2089500Y32910500D02*
X0Y35000000D01*
X2089500Y51910500D02*
X0Y54000000D01*
X8275000Y60750000D02*
X6400000Y62625000D01*
X8275000Y41750000D02*
X6400000Y43625000D01*
X0Y16000000D02*
X2089500Y18089500D01*
%TO.N,home_col_pinky*%
X-2950000Y43950000D02*
X0Y41000000D01*
X-3275000Y43950000D02*
X-2950000Y43950000D01*
%TO.N,outer_col_pinky*%
X-3275000Y62950000D02*
X-2950000Y62950000D01*
X-2950000Y62950000D02*
X0Y60000000D01*
%TO.N,inner_col_ring*%
X15725000Y33950000D02*
X16050000Y33950000D01*
X16050000Y33950000D02*
X19000000Y31000000D01*
%TO.N,col_ring*%
X27275000Y69750000D02*
X25400000Y71625000D01*
X21089500Y31491150D02*
X21089500Y27089500D01*
X21089500Y46089500D02*
X21089500Y60910500D01*
X23223350Y52625000D02*
X21089500Y50491150D01*
X21089500Y27089500D02*
X21089500Y41910500D01*
X21089500Y50491150D02*
X21089500Y46089500D01*
X27275000Y50750000D02*
X25400000Y52625000D01*
X25400000Y71625000D02*
X23223350Y71625000D01*
X21089500Y65089500D02*
X19000000Y63000000D01*
X21089500Y60910500D02*
X19000000Y63000000D01*
X23223350Y71625000D02*
X21089500Y69491150D01*
X21089500Y41910500D02*
X19000000Y44000000D01*
X19000000Y25000000D02*
X21089500Y27089500D01*
X19000000Y44000000D02*
X21089500Y46089500D01*
X23223350Y33625000D02*
X21089500Y31491150D01*
X21089500Y69491150D02*
X21089500Y65089500D01*
X25400000Y52625000D02*
X23223350Y52625000D01*
X27275000Y31750000D02*
X25400000Y33625000D01*
X25400000Y33625000D02*
X23223350Y33625000D01*
%TO.N,home_col_ring*%
X16050000Y52950000D02*
X19000000Y50000000D01*
X15725000Y52950000D02*
X16050000Y52950000D01*
%TO.N,outer_col_ring*%
X15725000Y71950000D02*
X16050000Y71950000D01*
X16050000Y71950000D02*
X19000000Y69000000D01*
%TO.N,thumb_col_middle*%
X34725000Y14950000D02*
X35050000Y14950000D01*
X35050000Y14950000D02*
X38000000Y12000000D01*
%TO.N,col_middle*%
X38000000Y6000000D02*
X40089500Y8089500D01*
X46275000Y12750000D02*
X44400000Y14625000D01*
X44400000Y33625000D02*
X42223350Y33625000D01*
X40089500Y31491150D02*
X40089500Y27089500D01*
X40089500Y60910500D02*
X38000000Y63000000D01*
X40089500Y12491150D02*
X40089500Y8089500D01*
X42223350Y33625000D02*
X40089500Y31491150D01*
X46275000Y31750000D02*
X44400000Y33625000D01*
X40089500Y8089500D02*
X40089500Y22910500D01*
X44400000Y14625000D02*
X42223350Y14625000D01*
X40089500Y22910500D02*
X38000000Y25000000D01*
X42223350Y52625000D02*
X40089500Y50491150D01*
X40089500Y46089500D02*
X40089500Y60910500D01*
X44400000Y52625000D02*
X42223350Y52625000D01*
X40089500Y50491150D02*
X40089500Y46089500D01*
X40089500Y65089500D02*
X38000000Y63000000D01*
X38000000Y44000000D02*
X40089500Y46089500D01*
X42223350Y14625000D02*
X40089500Y12491150D01*
X40089500Y69491150D02*
X40089500Y65089500D01*
X38000000Y25000000D02*
X40089500Y27089500D01*
X40089500Y41910500D02*
X38000000Y44000000D01*
X44400000Y71625000D02*
X42223350Y71625000D01*
X40089500Y27089500D02*
X40089500Y41910500D01*
X46275000Y50750000D02*
X44400000Y52625000D01*
X42223350Y71625000D02*
X40089500Y69491150D01*
X46275000Y69750000D02*
X44400000Y71625000D01*
%TO.N,inner_col_middle*%
X34725000Y33950000D02*
X35050000Y33950000D01*
X35050000Y33950000D02*
X38000000Y31000000D01*
%TO.N,home_col_middle*%
X35050000Y52950000D02*
X38000000Y50000000D01*
X34725000Y52950000D02*
X35050000Y52950000D01*
%TO.N,outer_col_middle*%
X35050000Y71950000D02*
X38000000Y69000000D01*
X34725000Y71950000D02*
X35050000Y71950000D01*
%TO.N,thumb_col_index*%
X53725000Y14950000D02*
X54050000Y14950000D01*
X54050000Y14950000D02*
X57000000Y12000000D01*
%TO.N,col_index*%
X59089500Y12491150D02*
X59089500Y8089500D01*
X59089500Y22910500D02*
X57000000Y25000000D01*
X65275000Y31750000D02*
X63400000Y33625000D01*
X63400000Y71625000D02*
X61223350Y71625000D01*
X59089500Y65089500D02*
X57000000Y63000000D01*
X63400000Y52625000D02*
X61223350Y52625000D01*
X59089500Y41910500D02*
X57000000Y44000000D01*
X65275000Y69750000D02*
X63400000Y71625000D01*
X59089500Y8089500D02*
X59089500Y22910500D01*
X59089500Y60910500D02*
X57000000Y63000000D01*
X63400000Y33625000D02*
X61223350Y33625000D01*
X65275000Y50750000D02*
X63400000Y52625000D01*
X63400000Y14625000D02*
X61223350Y14625000D01*
X59089500Y31491150D02*
X59089500Y27089500D01*
X59089500Y50491150D02*
X59089500Y46089500D01*
X57000000Y6000000D02*
X59089500Y8089500D01*
X61223350Y52625000D02*
X59089500Y50491150D01*
X61223350Y71625000D02*
X59089500Y69491150D01*
X59089500Y69491150D02*
X59089500Y65089500D01*
X61223350Y14625000D02*
X59089500Y12491150D01*
X61223350Y33625000D02*
X59089500Y31491150D01*
X57000000Y44000000D02*
X59089500Y46089500D01*
X65275000Y12750000D02*
X63400000Y14625000D01*
X59089500Y46089500D02*
X59089500Y60910500D01*
X57000000Y25000000D02*
X59089500Y27089500D01*
X59089500Y27089500D02*
X59089500Y41910500D01*
%TO.N,inner_col_index*%
X53725000Y33950000D02*
X54050000Y33950000D01*
X54050000Y33950000D02*
X57000000Y31000000D01*
%TO.N,home_col_index*%
X53725000Y52950000D02*
X54050000Y52950000D01*
X54050000Y52950000D02*
X57000000Y50000000D01*
%TO.N,outer_col_index*%
X54050000Y71950000D02*
X57000000Y69000000D01*
X53725000Y71950000D02*
X54050000Y71950000D01*
%TO.N,thumb_col_far*%
X72725000Y11350000D02*
X73050000Y11350000D01*
X73050000Y11350000D02*
X76000000Y8400000D01*
%TO.N,col_far*%
X80223350Y11025000D02*
X78089500Y8891150D01*
X82400000Y30025000D02*
X80223350Y30025000D01*
X80223350Y68025000D02*
X78089500Y65891150D01*
X76000000Y21400000D02*
X78089500Y23489500D01*
X82400000Y11025000D02*
X80223350Y11025000D01*
X78089500Y19310500D02*
X76000000Y21400000D01*
X78089500Y4489500D02*
X78089500Y19310500D01*
X84275000Y66150000D02*
X82400000Y68025000D01*
X84275000Y47150000D02*
X82400000Y49025000D01*
X76000000Y2400000D02*
X78089500Y4489500D01*
X82400000Y68025000D02*
X80223350Y68025000D01*
X78089500Y61489500D02*
X76000000Y59400000D01*
X84275000Y28150000D02*
X82400000Y30025000D01*
X78089500Y46891150D02*
X78089500Y42489500D01*
X78089500Y57310500D02*
X76000000Y59400000D01*
X80223350Y49025000D02*
X78089500Y46891150D01*
X78089500Y42489500D02*
X78089500Y57310500D01*
X78089500Y23489500D02*
X78089500Y38310500D01*
X80223350Y30025000D02*
X78089500Y27891150D01*
X78089500Y38310500D02*
X76000000Y40400000D01*
X78089500Y27891150D02*
X78089500Y23489500D01*
X78089500Y65891150D02*
X78089500Y61489500D01*
X84275000Y9150000D02*
X82400000Y11025000D01*
X76000000Y40400000D02*
X78089500Y42489500D01*
X78089500Y8891150D02*
X78089500Y4489500D01*
X82400000Y49025000D02*
X80223350Y49025000D01*
%TO.N,inner_col_far*%
X72725000Y30350000D02*
X73050000Y30350000D01*
X73050000Y30350000D02*
X76000000Y27400000D01*
%TO.N,home_col_far*%
X72725000Y49350000D02*
X73050000Y49350000D01*
X73050000Y49350000D02*
X76000000Y46400000D01*
%TO.N,outer_col_far*%
X72725000Y68350000D02*
X73050000Y68350000D01*
X73050000Y68350000D02*
X76000000Y65400000D01*
%TO.N,POS*%
X82595000Y14575000D02*
X81425000Y15745000D01*
X82995000Y14575000D02*
X82595000Y14575000D01*
X81425000Y15745000D02*
X81425000Y16825000D01*
%TO.N,RAW*%
X83745000Y16825000D02*
X82995000Y16075000D01*
X84925000Y16825000D02*
X83745000Y16825000D01*
%TO.N,GND*%
X85130000Y21300000D02*
X85130000Y19116726D01*
X85900000Y10775000D02*
X85900000Y-1725000D01*
X85900000Y22070000D02*
X85130000Y21300000D01*
X85580000Y14980000D02*
X85130000Y14530000D01*
X85130000Y11545000D02*
X85900000Y10775000D01*
X85580000Y18666726D02*
X85580000Y14980000D01*
X85130000Y14530000D02*
X85130000Y11545000D01*
X85130000Y19116726D02*
X85580000Y18666726D01*
X85900000Y29800000D02*
X85900000Y22070000D01*
X85900000Y-1725000D02*
X84625000Y-3000000D01*
X85250000Y30450000D02*
X85900000Y29800000D01*
%TD*%
M02*
