M48
; DRILL file {KiCad 7.0.7} date Thu 30 Nov 2023 08:13:52 PM
; FORMAT={-:-/ absolute / inch / decimal}
; #@! TF.CreationDate,2023-11-30T20:13:52-05:00
; #@! TF.GenerationSoftware,Kicad,Pcbnew,7.0.7
; #@! TF.FileFunction,Plated,1,2,PTH
FMAT,2
INCH
; #@! TA.AperFunction,Plated,PTH,ComponentDrill
T1C0.0118
; #@! TA.AperFunction,Plated,PTH,ComponentDrill
T2C0.0276
; #@! TA.AperFunction,Plated,PTH,ComponentDrill
T3C0.0390
%
G90
G05
T1
X0.0Y2.3622
X0.0Y2.126
X0.0Y1.6142
X0.0Y1.378
X0.0Y0.8661
X0.0Y0.6299
X0.748Y2.7165
X0.748Y2.4803
X0.748Y1.9685
X0.748Y1.7323
X0.748Y1.2205
X0.748Y0.9843
X1.4961Y2.7165
X1.4961Y2.4803
X1.4961Y1.9685
X1.4961Y1.7323
X1.4961Y1.2205
X1.4961Y0.9843
X1.4961Y0.4724
X1.4961Y0.2362
X2.2441Y2.7165
X2.2441Y2.4803
X2.2441Y1.9685
X2.2441Y1.7323
X2.2441Y1.2205
X2.2441Y0.9843
X2.2441Y0.4724
X2.2441Y0.2362
X2.9921Y2.5748
X2.9921Y2.3386
X2.9921Y1.8268
X2.9921Y1.5906
X2.9921Y1.0787
X2.9921Y0.8425
X2.9921Y0.3307
X2.9921Y0.0945
X3.2057Y0.6624
X3.3435Y0.6624
T2
X3.3317Y-0.0197
X3.3317Y-0.1181
X3.3563Y1.2972
X3.3563Y1.1988
T3
X-0.15Y2.0591
X-0.15Y1.311
X-0.15Y0.563
X0.15Y2.0591
X0.15Y1.311
X0.15Y0.563
X0.598Y2.4134
X0.598Y1.6654
X0.598Y0.9173
X0.898Y2.4134
X0.898Y1.6654
X0.898Y0.9173
X1.3461Y2.4134
X1.3461Y1.6654
X1.3461Y0.9173
X1.3461Y0.1693
X1.6461Y2.4134
X1.6461Y1.6654
X1.6461Y0.9173
X1.6461Y0.1693
X2.0941Y2.4134
X2.0941Y1.6654
X2.0941Y0.9173
X2.0941Y0.1693
X2.3941Y2.4134
X2.3941Y1.6654
X2.3941Y0.9173
X2.3941Y0.1693
X2.8421Y2.2717
X2.8421Y1.5236
X2.8421Y0.7756
X2.8421Y0.0276
X3.1421Y2.2717
X3.1421Y1.5236
X3.1421Y0.7756
X3.1421Y0.0276
X3.4449Y2.1811
X3.4449Y2.0827
X3.4449Y1.9843
X3.4449Y1.8858
X3.4449Y1.7874
X3.4449Y1.689
X3.4449Y1.5906
X3.4449Y1.4921
X3.4449Y1.3937
T0
M30
